<mxfile host="app.diagrams.net" modified="2022-11-07T17:40:17.590Z" agent="5.0 (Windows NT 10.0; Win64; x64) AppleWebKit/537.36 (KHTML, like Gecko) Chrome/107.0.0.0 Safari/537.36" etag="WQqAcsV14Zy-ceHK_vRk" version="20.5.3" type="github">
  <diagram id="C5RBs43oDa-KdzZeNtuy" name="Page-1">
    <mxGraphModel dx="782" dy="738" grid="1" gridSize="10" guides="1" tooltips="1" connect="1" arrows="1" fold="1" page="1" pageScale="1" pageWidth="827" pageHeight="1169" math="0" shadow="0">
      <root>
        <mxCell id="WIyWlLk6GJQsqaUBKTNV-0" />
        <mxCell id="WIyWlLk6GJQsqaUBKTNV-1" parent="WIyWlLk6GJQsqaUBKTNV-0" />
        <mxCell id="0DY2LvDuYHbzwGh3cK99-14" style="edgeStyle=orthogonalEdgeStyle;rounded=0;orthogonalLoop=1;jettySize=auto;html=1;entryX=0.5;entryY=0;entryDx=0;entryDy=0;fontSize=16;endArrow=oval;endFill=1;exitX=1;exitY=0.5;exitDx=0;exitDy=0;" edge="1" parent="WIyWlLk6GJQsqaUBKTNV-1" source="0DY2LvDuYHbzwGh3cK99-0" target="0DY2LvDuYHbzwGh3cK99-13">
          <mxGeometry relative="1" as="geometry" />
        </mxCell>
        <mxCell id="0DY2LvDuYHbzwGh3cK99-0" value="&lt;div style=&quot;text-align: left;&quot;&gt;&lt;span style=&quot;background-color: initial;&quot;&gt;&lt;/span&gt;&lt;/div&gt;&lt;table&gt;&lt;tbody&gt;&lt;tr&gt;&lt;td&gt;-DBnome&lt;/td&gt;&lt;td&gt;varcha&lt;/td&gt;&lt;/tr&gt;&lt;tr&gt;&lt;td&gt;-DBtable&lt;/td&gt;&lt;td&gt;varcha&lt;/td&gt;&lt;/tr&gt;&lt;tr&gt;&lt;td&gt;-DBlogin&lt;/td&gt;&lt;td&gt;varcha&lt;/td&gt;&lt;/tr&gt;&lt;tr&gt;&lt;td&gt;-DBsenha&lt;/td&gt;&lt;td&gt;varcha&lt;/td&gt;&lt;/tr&gt;&lt;/tbody&gt;&lt;/table&gt;" style="rounded=0;whiteSpace=wrap;html=1;container=1;fontSize=16;" vertex="1" parent="WIyWlLk6GJQsqaUBKTNV-1">
          <mxGeometry x="250" y="100" width="200" height="230" as="geometry" />
        </mxCell>
        <mxCell id="0DY2LvDuYHbzwGh3cK99-1" value="" style="rounded=0;whiteSpace=wrap;html=1;container=1;" vertex="1" parent="0DY2LvDuYHbzwGh3cK99-0">
          <mxGeometry y="188.18181818181822" width="200" height="41.81818181818182" as="geometry" />
        </mxCell>
        <mxCell id="0DY2LvDuYHbzwGh3cK99-2" value="DBclass" style="rounded=0;whiteSpace=wrap;html=1;container=1;fontSize=20;" vertex="1" parent="0DY2LvDuYHbzwGh3cK99-0">
          <mxGeometry width="200" height="34.84848484848485" as="geometry" />
        </mxCell>
        <mxCell id="0DY2LvDuYHbzwGh3cK99-3" value="&lt;div style=&quot;text-align: left;&quot;&gt;&lt;span style=&quot;background-color: initial;&quot;&gt;&lt;/span&gt;&lt;/div&gt;&lt;table&gt;&lt;tbody&gt;&lt;tr&gt;&lt;td&gt;-onde&lt;/td&gt;&lt;td&gt;varcha&lt;/td&gt;&lt;/tr&gt;&lt;tr&gt;&lt;td&gt;-item&lt;/td&gt;&lt;td&gt;varcha&lt;/td&gt;&lt;/tr&gt;&lt;/tbody&gt;&lt;/table&gt;" style="rounded=0;whiteSpace=wrap;html=1;container=1;fontSize=16;" vertex="1" parent="WIyWlLk6GJQsqaUBKTNV-1">
          <mxGeometry x="30" y="440" width="200" height="190" as="geometry" />
        </mxCell>
        <mxCell id="0DY2LvDuYHbzwGh3cK99-4" value="" style="rounded=0;whiteSpace=wrap;html=1;container=1;fontSize=16;" vertex="1" parent="0DY2LvDuYHbzwGh3cK99-3">
          <mxGeometry y="139.33333333333331" width="200" height="50.666666666666664" as="geometry" />
        </mxCell>
        <mxCell id="0DY2LvDuYHbzwGh3cK99-5" value="inserir" style="rounded=0;whiteSpace=wrap;html=1;container=1;fontSize=20;" vertex="1" parent="0DY2LvDuYHbzwGh3cK99-3">
          <mxGeometry width="200" height="50.666666666666664" as="geometry" />
        </mxCell>
        <mxCell id="0DY2LvDuYHbzwGh3cK99-6" style="edgeStyle=orthogonalEdgeStyle;rounded=0;orthogonalLoop=1;jettySize=auto;html=1;entryX=0.5;entryY=0;entryDx=0;entryDy=0;fontSize=20;horizontal=1;endArrow=oval;endFill=1;exitX=0;exitY=0.5;exitDx=0;exitDy=0;" edge="1" parent="WIyWlLk6GJQsqaUBKTNV-1" source="0DY2LvDuYHbzwGh3cK99-0" target="0DY2LvDuYHbzwGh3cK99-5">
          <mxGeometry relative="1" as="geometry" />
        </mxCell>
        <mxCell id="0DY2LvDuYHbzwGh3cK99-7" value="&lt;div style=&quot;text-align: left;&quot;&gt;&lt;span style=&quot;background-color: initial;&quot;&gt;&lt;/span&gt;&lt;/div&gt;&lt;table&gt;&lt;tbody&gt;&lt;tr&gt;&lt;td&gt;-onde&lt;/td&gt;&lt;td&gt;varcha&lt;/td&gt;&lt;/tr&gt;&lt;/tbody&gt;&lt;/table&gt;" style="rounded=0;whiteSpace=wrap;html=1;container=1;fontSize=16;" vertex="1" parent="WIyWlLk6GJQsqaUBKTNV-1">
          <mxGeometry x="250" y="440" width="200" height="190" as="geometry" />
        </mxCell>
        <mxCell id="0DY2LvDuYHbzwGh3cK99-8" value="" style="rounded=0;whiteSpace=wrap;html=1;container=1;fontSize=16;" vertex="1" parent="0DY2LvDuYHbzwGh3cK99-7">
          <mxGeometry y="139.33333333333331" width="200" height="50.666666666666664" as="geometry" />
        </mxCell>
        <mxCell id="0DY2LvDuYHbzwGh3cK99-9" value="deletar" style="rounded=0;whiteSpace=wrap;html=1;container=1;fontSize=20;" vertex="1" parent="0DY2LvDuYHbzwGh3cK99-7">
          <mxGeometry width="200" height="50.666666666666664" as="geometry" />
        </mxCell>
        <mxCell id="0DY2LvDuYHbzwGh3cK99-10" style="edgeStyle=orthogonalEdgeStyle;rounded=0;orthogonalLoop=1;jettySize=auto;html=1;entryX=0.5;entryY=0;entryDx=0;entryDy=0;fontSize=16;endArrow=oval;endFill=1;" edge="1" parent="WIyWlLk6GJQsqaUBKTNV-1" source="0DY2LvDuYHbzwGh3cK99-1" target="0DY2LvDuYHbzwGh3cK99-9">
          <mxGeometry relative="1" as="geometry" />
        </mxCell>
        <mxCell id="0DY2LvDuYHbzwGh3cK99-11" value="&lt;div style=&quot;text-align: left;&quot;&gt;&lt;span style=&quot;background-color: initial;&quot;&gt;&lt;/span&gt;&lt;/div&gt;&lt;table&gt;&lt;tbody&gt;&lt;tr&gt;&lt;td&gt;-onde&lt;/td&gt;&lt;td&gt;varcha&lt;/td&gt;&lt;/tr&gt;&lt;/tbody&gt;&lt;/table&gt;" style="rounded=0;whiteSpace=wrap;html=1;container=1;fontSize=16;" vertex="1" parent="WIyWlLk6GJQsqaUBKTNV-1">
          <mxGeometry x="470" y="440" width="200" height="190" as="geometry" />
        </mxCell>
        <mxCell id="0DY2LvDuYHbzwGh3cK99-12" value="" style="rounded=0;whiteSpace=wrap;html=1;container=1;fontSize=16;" vertex="1" parent="0DY2LvDuYHbzwGh3cK99-11">
          <mxGeometry y="139.33333333333331" width="200" height="50.666666666666664" as="geometry" />
        </mxCell>
        <mxCell id="0DY2LvDuYHbzwGh3cK99-13" value="seleciona" style="rounded=0;whiteSpace=wrap;html=1;container=1;fontSize=20;" vertex="1" parent="0DY2LvDuYHbzwGh3cK99-11">
          <mxGeometry width="200" height="50.666666666666664" as="geometry" />
        </mxCell>
      </root>
    </mxGraphModel>
  </diagram>
</mxfile>
